# xmcd
#
# Track frame offsets:
#	150
#	9150
#	16587
#	26225
#	33362
#	40975
#	59025
#	73300
#	82225
#	94450
#	104212
#	116212
#	126612
#	136275
#
# Disc length: 1938 seconds
#
# Revision: 1
# Processed by: cddbd v1.5.2PL0 Copyright (c) Steve Scherf et al.
# Submitted via: audiograbber 1.83.01
#
DISCID=d507900e
DTITLE=verschiedene - Weihnachten im Spielzeugland
DYEAR=1995
DGENRE=Weihnachtsmusik
TTITLE0=De Peremett
TTITLE1=Erzgebirgische Spielmusik
TTITLE2=Vür Weihnachten
TTITLE3=Schnitzerlied
TTITLE4=Besuch im Spielzeugland
TTITLE5=Wu dr Engel lacht
TTITLE6=Weihnacht ueberm Arzgebirg
TTITLE7=Wie Bergleute hauen fein
TTITLE8=Seiffner Marsch
TTITLE9=Dr Bargma
TTITLE10=Lustiges Erzgebirge
TTITLE11=s gebirgische Madel
TTITLE12=Kleine Hausmusik
TTITLE13=Saaht Kinner, saaht naus
EXTD=
EXTT0=
EXTT1=
EXTT2=
EXTT3=
EXTT4=
EXTT5=
EXTT6=
EXTT7=
EXTT8=
EXTT9=
EXTT10=
EXTT11=
EXTT12=
EXTT13=
PLAYORDER=
